# xmcd
# 
# Track frame offsets:
#     150
#     19986
#     33937
#     52035
#     66309
#     85617
#     104805
#     124204
#     144484
#     169390
#     186619
#     207853
#     230328
# 
# Disc length: 3226
# 
# Revision: 2
# Processed by: cddbd v1.5.2PL0 Copyright (c) Steve Scherf et al.
# Submitted via: BonkEnc v1.0.15
# 
DISCID=c30c980d
DTITLE=Eliane Elias - Around The City
DYEAR=2006
DGENRE=Jazz
TTITLE0=Tropicalia
TTITLE1=Vizinha
TTITLE2=Save Your Love
TTITLE3=Chiclette
TTITLE4=Segredos (front)
TTITLE5=Oye Como Va
TTITLE6=Slide Show
TTITLE7=Around The City
TTITLE8=Jammin'
TTITLE9=Running
TTITLE10=We're So Good
TTITLE11=Another Day
TTITLE12=Segredos (back)
EXTD=YEAR: 2006
EXTT0=
EXTT1=
EXTT2=
EXTT3=
EXTT4=
EXTT5=
EXTT6=
EXTT7=
EXTT8=
EXTT9=
EXTT10=
EXTT11=
EXTT12=
PLAYORDER=
